<svg width="131" height="204" viewBox="0 0 131 204" fill="none" xmlns="http://www.w3.org/2000/svg">
<path d="M59.5002 104.5L58.2329 102.953L59.5002 104.5ZM5.00036 98.5L6.84923 97.7373L5.00036 98.5ZM99.5003 54.5L98.4975 56.2304L98.4975 56.2304L99.5003 54.5ZM110.73 202.93C111.244 203.908 112.453 204.284 113.431 203.77L129.364 195.397C130.342 194.883 130.718 193.673 130.204 192.696C129.69 191.718 128.481 191.342 127.503 191.856L113.34 199.299L105.897 185.136C105.383 184.158 104.174 183.782 103.196 184.296C102.218 184.81 101.842 186.019 102.356 186.997L110.73 202.93ZM14.9257 9.94447C15.8183 10.5952 17.0693 10.3992 17.7201 9.50666C18.3708 8.61412 18.1748 7.36305 17.2823 6.71232L14.9257 9.94447ZM34.8154 20.5888C33.9782 19.8682 32.7154 19.9627 31.9948 20.7998C31.2742 21.637 31.3687 22.8998 32.2059 23.6204L34.8154 20.5888ZM48.1351 38.7937C48.8893 39.6007 50.1549 39.6435 50.9619 38.8892C51.7689 38.135 51.8116 36.8694 51.0574 36.0624L48.1351 38.7937ZM65.0346 53.7653C64.4431 52.8324 63.2074 52.5556 62.2746 53.1471C61.3417 53.7385 61.0649 54.9743 61.6564 55.9071L65.0346 53.7653ZM69.7409 75.5594C69.9092 76.651 70.9306 77.3996 72.0223 77.2313C73.1139 77.063 73.8625 76.0416 73.6942 74.95L69.7409 75.5594ZM68.7316 97.5266C69.3547 96.6146 69.1205 95.3701 68.2085 94.747C67.2965 94.1239 66.052 94.358 65.4289 95.27L68.7316 97.5266ZM51.996 107.377C51.05 107.947 50.7452 109.176 51.3153 110.122C51.8854 111.069 53.1145 111.373 54.0606 110.803L51.996 107.377ZM38.5935 116.625C39.6844 116.452 40.4285 115.427 40.2555 114.337C40.0825 113.246 39.0579 112.501 37.967 112.674L38.5935 116.625ZM23.2332 111.559C22.183 111.216 21.0542 111.79 20.7119 112.84C20.3696 113.891 20.9435 115.019 21.9937 115.362L23.2332 111.559ZM7.86728 106.445C8.61721 107.256 9.88257 107.306 10.6935 106.556C11.5045 105.806 11.554 104.541 10.804 103.73L7.86728 106.445ZM4.66585 87.8917C4.63195 86.7876 3.70946 85.9201 2.60541 85.954C1.50136 85.9879 0.633832 86.9104 0.667734 88.0145L4.66585 87.8917ZM8.23421 66.6904C7.54971 67.5573 7.69758 68.815 8.56449 69.4995C9.43139 70.184 10.6891 70.0361 11.3736 69.1692L8.23421 66.6904ZM27.5249 56.1315C28.4981 55.6089 28.8633 54.3964 28.3407 53.4233C27.8182 52.4502 26.6057 52.0849 25.6325 52.6075L27.5249 56.1315ZM46.5255 45.0814C45.4446 45.309 44.7529 46.3697 44.9805 47.4506C45.2081 48.5315 46.2688 49.2232 47.3496 48.9956L46.5255 45.0814ZM68.4057 47.422C69.5083 47.4889 70.4563 46.6494 70.5233 45.5469C70.5902 44.4443 69.7507 43.4963 68.6482 43.4293L68.4057 47.422ZM90.3991 47.9901C89.3653 47.6012 88.2119 48.124 87.823 49.1578C87.434 50.1917 87.9568 51.3451 88.9907 51.734L90.3991 47.9901ZM105.948 61.8415C106.744 62.6065 108.011 62.5806 108.775 61.7838C109.54 60.9869 109.515 59.7209 108.718 58.9559L105.948 61.8415ZM120.101 75.7444C119.659 74.7324 118.48 74.2708 117.468 74.7134C116.456 75.156 115.994 76.3352 116.437 77.3472L120.101 75.7444ZM121.752 95.7267C121.942 96.8149 122.978 97.5434 124.066 97.3539C125.154 97.1643 125.882 96.1285 125.693 95.0403L121.752 95.7267ZM127.565 114.866C127.536 113.761 126.617 112.89 125.512 112.919C124.408 112.949 123.537 113.868 123.566 114.972L127.565 114.866ZM123.077 134.411C122.998 135.513 123.828 136.469 124.93 136.548C126.032 136.626 126.988 135.797 127.067 134.695L123.077 134.411ZM124.922 154.373C125.079 153.28 124.32 152.266 123.227 152.108C122.134 151.951 121.12 152.71 120.963 153.803L124.922 154.373ZM117.612 173.019C117.392 174.101 118.091 175.157 119.173 175.378C120.255 175.598 121.311 174.899 121.532 173.817L117.612 173.019ZM117.062 193.108C117.341 192.039 116.7 190.946 115.632 190.667C114.563 190.389 113.47 191.029 113.192 192.098L117.062 193.108ZM7.00029 2C5.91834 3.68208 5.91828 3.68204 5.91823 3.68201C5.91824 3.68201 5.9182 3.68199 5.9182 3.68199C5.91821 3.682 5.91827 3.68204 5.91839 3.68211C5.91863 3.68226 5.91908 3.68255 5.91975 3.68299C5.92109 3.68385 5.9233 3.68528 5.92638 3.68726C5.93253 3.69123 5.94214 3.69744 5.95516 3.70587C5.98119 3.72272 6.02085 3.74845 6.07372 3.7829C6.17945 3.8518 6.33802 3.9556 6.54613 4.09309C6.96235 4.36807 7.57664 4.77777 8.3626 5.31256C9.93468 6.38226 12.1927 7.95185 14.9257 9.94447L17.2823 6.71232C14.5101 4.6912 12.2163 3.09659 10.6128 2.00553C9.811 1.45994 9.18158 1.04012 8.75104 0.755671C8.53576 0.613444 8.37018 0.505051 8.25762 0.431695C8.20134 0.395017 8.1583 0.367096 8.12893 0.348084C8.11425 0.338577 8.10298 0.331298 8.09518 0.326264C8.09128 0.323748 8.08825 0.321792 8.08609 0.320401C8.08501 0.319705 8.08415 0.31915 8.0835 0.318736C8.08318 0.318529 8.08292 0.318358 8.0827 0.318222C8.0826 0.318154 8.08248 0.318078 8.08243 0.318044C8.08232 0.317977 8.08223 0.317919 7.00029 2ZM32.2059 23.6204C37.503 28.18 43.0103 33.3106 48.1351 38.7937L51.0574 36.0624C45.811 30.4492 40.1935 25.2181 34.8154 20.5888L32.2059 23.6204ZM61.6564 55.9071C65.8294 62.489 68.7501 69.1316 69.7409 75.5594L73.6942 74.95C72.5912 67.794 69.3841 60.6255 65.0346 53.7653L61.6564 55.9071ZM65.4289 95.27C63.6371 97.8925 61.2705 100.465 58.2329 102.953L60.7676 106.047C64.0631 103.348 66.6998 100.5 68.7316 97.5266L65.4289 95.27ZM58.2329 102.953C56.1338 104.672 54.051 106.139 51.996 107.377L54.0606 110.803C56.2882 109.461 58.5275 107.882 60.7676 106.047L58.2329 102.953ZM37.967 112.674C32.5999 113.526 27.6087 112.985 23.2332 111.559L21.9937 115.362C26.9449 116.975 32.5752 117.579 38.5935 116.625L37.967 112.674ZM10.804 103.73C9.00373 101.783 7.66913 99.7249 6.84923 97.7373L3.15149 99.2627C4.17742 101.75 5.79245 104.202 7.86728 106.445L10.804 103.73ZM6.84923 97.7373C5.45669 94.3615 4.7634 91.0686 4.66585 87.8917L0.667734 88.0145C0.780835 91.6976 1.58471 95.4645 3.15149 99.2627L6.84923 97.7373ZM11.3736 69.1692C15.3459 64.1384 20.9013 59.6884 27.5249 56.1315L25.6325 52.6075C18.6238 56.3711 12.6088 61.1501 8.23421 66.6904L11.3736 69.1692ZM47.3496 48.9956C54.1291 47.5682 61.2641 46.9883 68.4057 47.422L68.6482 43.4293C61.1342 42.973 53.6404 43.5834 46.5255 45.0814L47.3496 48.9956ZM88.9907 51.734C92.2485 52.9596 95.4297 54.4525 98.4975 56.2304L100.503 52.7696C97.2376 50.8771 93.856 49.2906 90.3991 47.9901L88.9907 51.734ZM98.4975 56.2304C101.25 57.8258 103.725 59.7082 105.948 61.8415L108.718 58.9559C106.271 56.6069 103.54 54.5297 100.503 52.7696L98.4975 56.2304ZM116.437 77.3472C118.874 82.9207 120.602 89.1249 121.752 95.7267L125.693 95.0403C124.501 88.1975 122.694 81.6731 120.101 75.7444L116.437 77.3472ZM123.566 114.972C123.737 121.405 123.537 127.948 123.077 134.411L127.067 134.695C127.535 128.125 127.74 121.451 127.565 114.866L123.566 114.972ZM120.963 153.803C119.976 160.658 118.806 167.154 117.612 173.019L121.532 173.817C122.738 167.888 123.923 161.315 124.922 154.373L120.963 153.803ZM113.192 192.098C112.424 195.038 111.772 197.371 111.313 198.966C111.083 199.764 110.902 200.377 110.778 200.789C110.716 200.995 110.669 201.151 110.637 201.254C110.621 201.306 110.609 201.345 110.602 201.37C110.598 201.383 110.595 201.392 110.593 201.398C110.592 201.401 110.591 201.403 110.591 201.405C110.591 201.405 110.591 201.406 110.591 201.406C110.59 201.406 110.59 201.406 110.59 201.406C110.59 201.406 110.59 201.406 110.59 201.406C110.59 201.406 110.59 201.406 112.5 202C114.41 202.594 114.41 202.594 114.41 202.594C114.41 202.594 114.41 202.594 114.41 202.593C114.41 202.593 114.41 202.593 114.41 202.593C114.411 202.592 114.411 202.591 114.411 202.59C114.412 202.588 114.413 202.585 114.414 202.581C114.416 202.574 114.42 202.563 114.424 202.549C114.433 202.52 114.446 202.478 114.462 202.423C114.496 202.313 114.545 202.151 114.609 201.938C114.737 201.513 114.923 200.886 115.157 200.073C115.624 198.449 116.285 196.083 117.062 193.108L113.192 192.098Z" fill="#E7DDBA"/>
</svg>
