<svg width="146" height="146" viewBox="0 0 146 146" fill="none" xmlns="http://www.w3.org/2000/svg">
<rect x="27.375" y="27.375" width="103.417" height="103.417" fill="black" stroke="black" stroke-width="6.08333" stroke-linejoin="round"/>
<rect x="15.2083" y="15.2083" width="103.417" height="103.417" fill="#39DBFF" stroke="black" stroke-width="6.08333" stroke-linejoin="round"/>
<path d="M104.08 83.284L101.335 38.4632C101.256 37.2064 100.681 36.0323 99.7365 35.1991C98.792 34.366 97.5559 33.9422 96.299 34.0202L67.1358 35.8021C66.3128 33.5392 64.5494 31.7434 62.3014 30.8801C60.0533 30.0173 57.5417 30.1711 55.4157 31.3017C53.2896 32.4324 51.7581 34.4296 51.2176 36.7762H51.1344L40.3004 35.3746C39.0493 35.2129 37.7856 35.5555 36.7875 36.3266C35.7894 37.0971 35.1383 38.2336 34.9786 39.4847L28.7536 87.785C28.5924 89.036 28.935 90.2997 29.7055 91.2984C30.4766 92.2965 31.6131 92.9472 32.8642 93.1073L35.9884 93.5114L35.8934 95.4121V95.4116C35.8351 96.6642 36.2742 97.8892 37.1153 98.8195C37.9569 99.7497 39.1317 100.31 40.3837 100.377L82.8516 102.361C84.581 102.987 86.4059 103.308 88.2451 103.311C93.2248 103.341 97.9415 101.077 101.034 97.1734C104.126 93.2691 105.249 88.1594 104.08 83.3188L104.08 83.284ZM59.3189 35.0542C60.2708 35.058 61.1825 35.443 61.8491 36.1234L56.5151 36.4442C57.1854 35.5734 58.2201 35.0606 59.3189 35.0542ZM51.0034 41.54H51.312L62.8349 40.8389V48.1452C62.8349 49.4179 62.1556 50.5947 61.053 51.231C59.9505 51.868 58.5918 51.868 57.4892 51.231C56.3867 50.5947 55.7074 49.4179 55.7074 48.1452C55.7074 47.2961 55.2545 46.5118 54.5194 46.0875C53.7844 45.6633 52.8786 45.6633 52.1436 46.0875C51.4086 46.5118 50.9557 47.2961 50.9557 48.1452C50.9557 51.116 52.5408 53.861 55.1134 55.3464C57.686 56.8318 60.8563 56.8318 63.4289 55.3464C66.0014 53.861 67.5866 51.116 67.5866 48.1452V40.5302L96.5842 38.7606L98.7935 74.7065H98.794C95.6317 72.0135 91.5566 70.6367 87.4096 70.86C83.2624 71.0833 79.3587 72.889 76.5035 75.9055C73.6488 78.9226 72.0604 82.9196 72.0657 87.0726C72.0667 87.7323 72.1108 88.3909 72.1961 89.0448L50.9561 90.3632L47.9862 41.7302L51.0034 41.54ZM36.2134 88.7488L33.4695 88.3925L37.817 54.6432L36.2134 88.7488ZM39.1949 44.0829L39.7178 40.0917L43.4243 40.5669L43.4237 40.5664C43.2964 41.0426 43.2402 41.5353 43.2577 42.028V42.23H43.1628V42.2295C41.6174 42.1648 40.1374 42.8563 39.1949 44.0829ZM40.6682 95.6266L42.9608 46.9217H43.5664L46.2038 90.6495C46.2796 91.8576 46.8131 92.9909 47.6961 93.8188C48.5791 94.6471 49.7453 95.1064 50.9555 95.1043H51.2524L73.5148 93.7382C74.0833 95.0142 74.8141 96.2122 75.6887 97.302L40.6682 95.6266ZM88.3155 98.5608V98.5603C85.9004 98.5544 83.5479 97.7881 81.5925 96.37C79.6373 94.9525 78.1784 92.9548 77.422 90.6605L77.3388 90.4468C77.0089 89.3527 76.8408 88.2157 76.8403 87.0728C76.8403 84.0256 78.051 81.1035 80.2062 78.9488C82.3609 76.7946 85.284 75.585 88.3314 75.5859C91.3785 75.587 94.3007 76.7988 96.4543 78.9545C98.6079 81.1103 99.8166 84.0334 99.8144 87.0806C99.8123 90.1278 98.5995 93.0499 96.4432 95.2024C94.2863 97.3555 91.3627 98.5631 88.3155 98.5598L88.3155 98.5608Z" fill="black"/>
<path d="M90.6677 84.6973V79.3399C90.6677 78.4909 90.2148 77.7066 89.4798 77.2823C88.7448 76.858 87.839 76.858 87.1039 77.2823C86.3689 77.7066 85.916 78.4909 85.916 79.3399V84.6973H80.5587C79.7096 84.6973 78.9253 85.1501 78.5011 85.8852C78.0768 86.6207 78.0768 87.526 78.5011 88.261C78.9253 88.9966 79.7097 89.449 80.5587 89.449H85.916V94.8185C85.916 95.6676 86.3689 96.4519 87.1039 96.8761C87.839 97.3004 88.7448 97.3004 89.4798 96.8761C90.2148 96.4519 90.6677 95.6675 90.6677 94.8185V89.449H96.0373C96.8863 89.449 97.6706 88.9966 98.0949 88.261C98.5191 87.526 98.5191 86.6207 98.0949 85.8852C97.6706 85.1501 96.8863 84.6973 96.0373 84.6973H90.6677Z" fill="black"/>
</svg>
