<svg width="36" height="36" viewBox="0 0 36 36" fill="none" xmlns="http://www.w3.org/2000/svg">
<rect x="6.75" y="6.75" width="25.5" height="25.5" fill="black" stroke="black" stroke-width="1.5" stroke-linejoin="round"/>
<rect x="3.75" y="3.75" width="25.5" height="25.5" fill="#DD7DFF" stroke="black" stroke-width="1.5" stroke-linejoin="round"/>
<path d="M22.1425 18.0762C21.8672 19.0615 21.3387 19.9575 20.6096 20.6752C19.8805 21.3928 18.9762 21.9071 17.9867 22.1668C16.9972 22.4265 15.9569 22.4226 14.9694 22.1555C13.9818 21.8884 13.0814 21.3673 12.3577 20.6442C11.6341 19.9211 11.1123 19.0212 10.8444 18.0338C10.5765 17.0465 10.5717 16.0062 10.8306 15.0165C11.0895 14.0268 11.6031 13.1221 12.3201 12.3924C13.0372 11.6627 13.9328 11.1335 14.9179 10.8574C14.9901 10.8342 15.0668 10.829 15.1415 10.8424C15.2161 10.8558 15.2863 10.8873 15.3459 10.9342C15.4055 10.981 15.4527 11.0418 15.4833 11.1112C15.5139 11.1806 15.527 11.2564 15.5214 11.332C15.5212 11.3679 15.5153 11.4035 15.5038 11.4375C15.2714 12.2765 15.2656 13.1622 15.4872 14.0042C15.7088 14.8462 16.1497 15.6143 16.765 16.2302C17.3804 16.8462 18.1481 17.2879 18.9898 17.5102C19.8316 17.7326 20.7173 17.7277 21.5566 17.4961L21.6855 17.4727C21.7874 17.4719 21.8869 17.5039 21.9692 17.5641C22.0515 17.6242 22.1123 17.7093 22.1425 17.8066C22.172 17.8941 22.172 17.9887 22.1425 18.0762Z" fill="black"/>
</svg>
