<svg width="36" height="36" viewBox="0 0 36 36" fill="none" xmlns="http://www.w3.org/2000/svg">
<rect x="6.75" y="6.75" width="25.5" height="25.5" fill="black" stroke="black" stroke-width="1.58333" stroke-linejoin="round"/>
<rect x="3.75" y="3.75" width="25.5" height="25.5" fill="#FF5E5E" stroke="black" stroke-width="1.58333" stroke-linejoin="round"/>
<path d="M21.0714 10.8571H24.9999V12.4286H23.4285V24.2143C23.4285 24.4227 23.3457 24.6225 23.1984 24.7699C23.051 24.9172 22.8512 25 22.6428 25H11.6428C11.4344 25 11.2346 24.9172 11.0872 24.7699C10.9399 24.6225 10.8571 24.4227 10.8571 24.2143V12.4286H9.28564V10.8571H13.2142V9.28571H21.0714V10.8571ZM14.7856 14.7857V21.0714H16.3571V14.7857H14.7856ZM17.9285 14.7857V21.0714H19.4999V14.7857H17.9285Z" fill="black"/>
</svg>
