<svg width="36" height="36" viewBox="0 0 36 36" fill="none" xmlns="http://www.w3.org/2000/svg">
<rect x="6.75" y="6.75" width="25.5" height="25.5" fill="black" stroke="black" stroke-width="1.5" stroke-linejoin="round"/>
<rect x="3.75" y="3.75" width="25.5" height="25.5" fill="#FFB443" stroke="black" stroke-width="1.5" stroke-linejoin="round"/>
<path d="M16.4999 8.10004C21.1409 8.10004 24.8999 11.859 24.8999 16.5C24.8999 21.141 21.1409 24.9 16.4999 24.9C11.8589 24.9 8.09985 21.141 8.09985 16.5C8.09985 11.859 11.8589 8.10004 16.4999 8.10004ZM17.5499 12.3C17.5499 11.7225 17.0774 11.25 16.4999 11.25C15.9224 11.25 15.4499 11.7225 15.4499 12.3C15.4499 12.8775 15.9224 13.35 16.4999 13.35C17.0774 13.35 17.5499 12.8775 17.5499 12.3ZM17.5499 21.75V15.45H15.4499V21.75H17.5499Z" fill="black"/>
</svg>
