<svg width="36" height="36" viewBox="0 0 36 36" fill="none" xmlns="http://www.w3.org/2000/svg">
<rect x="6.75" y="6.75" width="25.5" height="25.5" fill="black" stroke="black" stroke-width="1.5" stroke-linejoin="round"/>
<rect x="3.75" y="3.75" width="25.5" height="25.5" fill="#39DBFF" stroke="black" stroke-width="1.5" stroke-linejoin="round"/>
<path d="M12.8292 16C12.8292 18.3009 14.7009 20.1725 17.0017 20.1725C19.3026 20.1725 21.1742 18.3009 21.1742 16C21.1742 13.6992 19.3026 11.8275 17.0017 11.8275C14.7009 11.8275 12.8292 13.6992 12.8292 16ZM16.1667 21.8334H17.8334V24.3334H16.1667V21.8334ZM16.1667 7.66669H17.8334V10.1667H16.1667V7.66669ZM8.66675 15.1667H11.1667V16.8334H8.66675V15.1667ZM22.8334 15.1667H25.3334V16.8334H22.8334V15.1667ZM11.6976 22.4817L10.5192 21.3034L12.2867 19.5359L13.4651 20.7142L11.6976 22.4817ZM20.5351 11.2867L22.3034 9.51835L23.4817 10.6967L21.7134 12.465L20.5351 11.2867ZM12.2867 12.4659L10.5192 10.6975L11.6984 9.51919L13.4651 11.2875L12.2867 12.4659ZM23.4817 21.3034L22.3034 22.4817L20.5351 20.7134L21.7134 19.535L23.4817 21.3034Z" fill="black"/>
</svg>
