<svg width="36" height="36" viewBox="0 0 36 36" fill="none" xmlns="http://www.w3.org/2000/svg">
<rect x="6.75" y="6.75" width="25.5" height="25.5" fill="black" stroke="black" stroke-width="1.5" stroke-linejoin="round"/>
<rect x="3.75" y="3.75" width="25.5" height="25.5" fill="#FFB443" stroke="black" stroke-width="1.5" stroke-linejoin="round"/>
<path d="M17.672 22.75H15.3282C15.172 22.75 15.0365 22.6979 14.922 22.5938C14.8074 22.4896 14.7397 22.3594 14.7188 22.2031L14.5313 20.75C14.3959 20.6979 14.2684 20.6354 14.1488 20.5625C14.0288 20.4896 13.9115 20.4115 13.797 20.3281L12.4376 20.8906C12.2918 20.9427 12.1459 20.9479 12.0001 20.9062C11.8543 20.8646 11.7397 20.776 11.6563 20.6406L10.5001 18.625C10.4168 18.4896 10.3907 18.3438 10.422 18.1875C10.4532 18.0312 10.5313 17.9063 10.6563 17.8125L11.8282 16.9219C11.8178 16.849 11.8126 16.7785 11.8126 16.7106V16.2887C11.8126 16.2212 11.8178 16.151 11.8282 16.0781L10.6563 15.1875C10.5313 15.0937 10.4532 14.9688 10.422 14.8125C10.3907 14.6562 10.4168 14.5104 10.5001 14.375L11.6563 12.3594C11.7293 12.2135 11.8411 12.1223 11.992 12.0856C12.1432 12.0494 12.2918 12.0573 12.4376 12.1094L13.797 12.6719C13.9115 12.5885 14.0313 12.5104 14.1563 12.4375C14.2813 12.3646 14.4063 12.3021 14.5313 12.25L14.7188 10.7969C14.7397 10.6406 14.8074 10.5104 14.922 10.4062C15.0365 10.3021 15.172 10.25 15.3282 10.25H17.672C17.8282 10.25 17.9636 10.3021 18.0782 10.4062C18.1928 10.5104 18.2605 10.6406 18.2813 10.7969L18.4688 12.25C18.6043 12.3021 18.732 12.3646 18.852 12.4375C18.9715 12.5104 19.0886 12.5885 19.2032 12.6719L20.5626 12.1094C20.7084 12.0573 20.8543 12.0521 21.0001 12.0937C21.1459 12.1354 21.2605 12.224 21.3438 12.3594L22.5001 14.375C22.5834 14.5104 22.6095 14.6562 22.5782 14.8125C22.547 14.9688 22.4688 15.0937 22.3438 15.1875L21.172 16.0781C21.1824 16.151 21.1876 16.2212 21.1876 16.2887V16.7106C21.1876 16.7785 21.1772 16.849 21.1563 16.9219L22.3282 17.8125C22.4532 17.9063 22.5313 18.0312 22.5626 18.1875C22.5938 18.3438 22.5678 18.4896 22.4845 18.625L21.3282 20.625C21.2449 20.7604 21.1278 20.8517 20.977 20.8988C20.8257 20.9454 20.6772 20.9427 20.5313 20.8906L19.2032 20.3281C19.0886 20.4115 18.9688 20.4896 18.8438 20.5625C18.7188 20.6354 18.5938 20.6979 18.4688 20.75L18.2813 22.2031C18.2605 22.3594 18.1928 22.4896 18.0782 22.5938C17.9636 22.6979 17.8282 22.75 17.672 22.75ZM16.5313 18.6875C17.1355 18.6875 17.6511 18.474 18.0782 18.0469C18.5053 17.6198 18.7188 17.1042 18.7188 16.5C18.7188 15.8958 18.5053 15.3802 18.0782 14.9531C17.6511 14.526 17.1355 14.3125 16.5313 14.3125C15.9168 14.3125 15.3984 14.526 14.9763 14.9531C14.5547 15.3802 14.3438 15.8958 14.3438 16.5C14.3438 17.1042 14.5547 17.6198 14.9763 18.0469C15.3984 18.474 15.9168 18.6875 16.5313 18.6875Z" fill="black"/>
</svg>
