<svg width="36" height="36" viewBox="0 0 36 36" fill="none" xmlns="http://www.w3.org/2000/svg">
<rect x="6.75" y="6.75" width="25.5" height="25.5" fill="black" stroke="black" stroke-width="1.5" stroke-linejoin="round"/>
<rect x="3.75" y="3.75" width="25.5" height="25.5" fill="#39DBFF" stroke="black" stroke-width="1.5" stroke-linejoin="round"/>
<path d="M17.682 20.4533L13.8495 18.363C13.4816 18.7282 13.0139 18.9763 12.5052 19.076C11.9966 19.1757 11.4697 19.1226 10.9912 18.9233C10.5127 18.7241 10.1039 18.3876 9.81629 17.9564C9.52871 17.5251 9.37524 17.0184 9.37524 16.5C9.37524 15.9817 9.52871 15.4749 9.81629 15.0437C10.1039 14.6124 10.5127 14.2759 10.9912 14.0767C11.4697 13.8774 11.9966 13.8243 12.5052 13.9241C13.0139 14.0238 13.4816 14.2718 13.8495 14.637L17.682 12.5468C17.5506 11.9301 17.6455 11.2867 17.9495 10.7342C18.2534 10.1818 18.7461 9.75717 19.3374 9.5381C19.9286 9.31902 20.579 9.3201 21.1695 9.54114C21.7601 9.76217 22.2513 10.1884 22.5534 10.7418C22.8556 11.2953 22.9484 11.939 22.8149 12.5553C22.6814 13.1715 22.3305 13.7192 21.8265 14.098C21.3224 14.4768 20.6988 14.6616 20.0697 14.6184C19.4407 14.5753 18.8481 14.3071 18.4005 13.863L14.568 15.9533C14.6445 16.3138 14.6445 16.6863 14.568 17.0468L18.4005 19.137C18.8481 18.6929 19.4407 18.4248 20.0697 18.3816C20.6988 18.3385 21.3224 18.5232 21.8265 18.902C22.3305 19.2809 22.6814 19.8285 22.8149 20.4448C22.9484 21.061 22.8556 21.7047 22.5534 22.2582C22.2513 22.8117 21.7601 23.2379 21.1695 23.4589C20.579 23.6799 19.9286 23.681 19.3374 23.4619C18.7461 23.2429 18.2534 22.8183 17.9495 22.2658C17.6455 21.7134 17.5506 21.07 17.682 20.4533Z" fill="black"/>
</svg>
